<svg width="60" height="60" viewBox="0 0 60 60" fill="none" xmlns="http://www.w3.org/2000/svg">
<g clip-path="url(#clip0_274_1908)">
<path d="M30 0C24.0666 0 18.2664 1.75947 13.3329 5.05591C8.39943 8.35236 4.55426 13.0377 2.28363 18.5195C0.0129986 24.0013 -0.581102 30.0333 0.576455 35.8527C1.73401 41.6721 4.59123 47.0176 8.78681 51.2132C12.9824 55.4088 18.3279 58.266 24.1473 59.4236C29.9667 60.5811 35.9987 59.987 41.4805 57.7164C46.9623 55.4458 51.6477 51.6006 54.9441 46.6671C58.2405 41.7336 60 35.9334 60 30C59.9914 22.0461 56.8279 14.4205 51.2037 8.7963C45.5795 3.17207 37.9539 0.0086027 30 0V0ZM30 55C25.0555 55 20.222 53.5338 16.1108 50.7867C11.9995 48.0397 8.79522 44.1352 6.90303 39.5671C5.01083 34.9989 4.51575 29.9723 5.48038 25.1227C6.44501 20.2732 8.82603 15.8186 12.3223 12.3223C15.8187 8.82602 20.2732 6.445 25.1228 5.48037C29.9723 4.51574 34.9989 5.01082 39.5671 6.90301C44.1353 8.7952 48.0397 11.9995 50.7868 16.1107C53.5338 20.222 55 25.0555 55 30C54.9927 36.6282 52.3565 42.9828 47.6696 47.6696C42.9828 52.3565 36.6282 54.9927 30 55Z" fill="#9FC131"/>
<path d="M30.0004 12.5004C29.3374 12.5004 28.7015 12.7638 28.2327 13.2326C27.7638 13.7014 27.5004 14.3373 27.5004 15.0004V35.0004C27.5004 35.6634 27.7638 36.2993 28.2327 36.7681C28.7015 37.237 29.3374 37.5004 30.0004 37.5004C30.6635 37.5004 31.2994 37.237 31.7682 36.7681C32.2371 36.2993 32.5005 35.6634 32.5005 35.0004V15.0004C32.5005 14.3373 32.2371 13.7014 31.7682 13.2326C31.2994 12.7638 30.6635 12.5004 30.0004 12.5004Z" fill="#9FC131"/>
<path d="M32.5005 45.0004C32.5005 43.6197 31.3812 42.5004 30.0004 42.5004C28.6197 42.5004 27.5004 43.6197 27.5004 45.0004C27.5004 46.3811 28.6197 47.5004 30.0004 47.5004C31.3812 47.5004 32.5005 46.3811 32.5005 45.0004Z" fill="#9FC131"/>
</g>
<defs>
<clipPath id="clip0_274_1908">
<rect width="60" height="60" fill="white"/>
</clipPath>
</defs>
</svg>
