<svg width="16" height="16" viewBox="0 0 16 16" fill="none" xmlns="http://www.w3.org/2000/svg">
<g clip-path="url(#clip0_274_1399)">
<path d="M11.0341 8C12.5708 6.74508 13.6118 4.98513 13.9714 3.034C14.0263 2.66044 14 2.27946 13.8944 1.91697C13.7888 1.55448 13.6063 1.21899 13.3594 0.933333C13.1087 0.641292 12.7979 0.406747 12.4483 0.245683C12.0986 0.0846186 11.7184 0.000820692 11.3334 0L4.67012 0C4.28459 0.000209228 3.90367 0.0837168 3.55341 0.244806C3.20316 0.405896 2.89184 0.640764 2.64078 0.933333C2.39326 1.21952 2.21048 1.5558 2.10497 1.91917C1.99946 2.28254 1.9737 2.66442 2.02945 3.03867C2.38739 4.98834 3.42743 6.74702 4.96345 8C3.4274 9.25343 2.38759 11.0126 2.03012 12.9627C1.97447 13.3367 2.00023 13.7183 2.10562 14.0814C2.21101 14.4445 2.39356 14.7806 2.64078 15.0667C2.89184 15.3592 3.20316 15.5941 3.55341 15.7552C3.90367 15.9163 4.28459 15.9998 4.67012 16H11.3334C11.719 15.9997 12.0998 15.9161 12.4501 15.755C12.8003 15.5939 13.1116 15.3591 13.3628 15.0667C13.6101 14.7806 13.7928 14.4446 13.8984 14.0815C14.004 13.7184 14.0301 13.3368 13.9748 12.9627C13.6135 11.0123 12.5713 9.25359 11.0341 8ZM11.8854 13.706C11.8245 13.7964 11.7423 13.8705 11.6461 13.9217C11.5498 13.973 11.4425 13.9999 11.3334 14H4.66678C4.55765 14.0001 4.45016 13.9733 4.35377 13.9222C4.25738 13.871 4.17502 13.7969 4.11394 13.7065C4.05285 13.616 4.01491 13.512 4.00343 13.4034C3.99195 13.2949 4.0073 13.1852 4.04812 13.084C4.74128 11.5919 5.79524 10.296 7.11478 9.31333L7.58145 8.94067C7.69942 8.84683 7.84571 8.79575 7.99645 8.79575C8.14719 8.79575 8.29348 8.84683 8.41145 8.94067L8.87145 9.308C10.1909 10.2941 11.2466 11.5907 11.9448 13.0827C11.9867 13.1835 12.0032 13.293 11.9929 13.4017C11.9825 13.5104 11.9456 13.6149 11.8854 13.706ZM10.2328 12.6667H5.76612C6.36511 11.7858 7.10132 11.0066 7.94678 10.3587L8.00012 10.3147L8.04745 10.3513C8.8926 11.004 9.63002 11.7853 10.2328 12.6667Z" fill="#9FC131"/>
</g>
<defs>
<clipPath id="clip0_274_1399">
<rect width="16" height="16" fill="white"/>
</clipPath>
</defs>
</svg>
